<?xml version="1.0" encoding="UTF-8" standalone="no"?>
<!-- Created with Inkscape (http://www.inkscape.org/) -->

<svg
   version="1.1"
   id="svg1"
   width="800"
   height="150"
   viewBox="0 0 800 150"
   sodipodi:docname="icon.svg"
   inkscape:version="1.3 (0e150ed6c4, 2023-07-21)"
   xmlns:inkscape="http://www.inkscape.org/namespaces/inkscape"
   xmlns:sodipodi="http://sodipodi.sourceforge.net/DTD/sodipodi-0.dtd"
   xmlns="http://www.w3.org/2000/svg"
   xmlns:svg="http://www.w3.org/2000/svg">
  <defs
     id="defs1" />
  <sodipodi:namedview
     id="namedview1"
     pagecolor="#00baff"
     bordercolor="#000000"
     borderopacity="0.25"
     inkscape:showpageshadow="2"
     inkscape:pageopacity="0.0"
     inkscape:pagecheckerboard="0"
     inkscape:deskcolor="#d1d1d1"
     showgrid="false"
     inkscape:zoom="1.3622282"
     inkscape:cx="386.13208"
     inkscape:cy="110.11371"
     inkscape:window-width="1368"
     inkscape:window-height="850"
     inkscape:window-x="-6"
     inkscape:window-y="-6"
     inkscape:window-maximized="1"
     inkscape:current-layer="g1" />
  <g
     inkscape:groupmode="layer"
     inkscape:label="Image"
     id="g1">
    <path
       style="fill:#ffffff;stroke:none;stroke-width:3.1722"
       d="m 225.32326,4.7322626 c 0,35.9184974 -14.87696,108.2670474 18.04413,133.5239474 25.88174,19.85633 76.69601,10.57898 107.96309,10.57898 -14.37674,-44.19042 -62.22102,-8.25538 -89.75803,-34.34835 C 229.61424,84.204496 278.87426,20.37504 225.32326,4.7322626 M 444.43923,148.83519 h 26.07048 V 82.959564 c 35.16225,0 81.453,10.081277 99.93677,-24.703361 h -99.93677 c 7.56765,-62.2882996 107.47123,2.351248 126.00723,-53.5239404 -35.54966,0 -116.36652,-14.2713584 -141.89897,12.9997604 -24.39145,26.05244 -10.17874,97.915177 -10.17874,131.103167 M 73.866303,8.8494868 0,148.83519 C 47.791214,147.2376 57.325788,95.673675 78.211379,62.373429 92.287336,95.24962 109.70332,145.48235 152.07768,148.83519 L 82.556453,8.8494868 h -8.69015 m 643.071307,0 -69.52123,139.9857032 c 42.87688,-3.3903 59.62751,-53.205343 73.86632,-86.461761 20.88568,33.300213 30.42008,84.864171 78.21138,86.461761 L 725.62779,8.8494868 Z"
       id="path1"
       sodipodi:nodetypes="cscscccccccsccccccccccccc" />
  </g>
</svg>
