<?xml version="1.0" encoding="UTF-8" standalone="no"?>
<!-- Created with Inkscape (http://www.inkscape.org/) -->

<svg
   version="1.1"
   id="svg1"
   width="256"
   height="256"
   viewBox="0 0 256 256"
   sodipodi:docname="icon.svg"
   inkscape:version="1.3 (0e150ed6c4, 2023-07-21)"
   xmlns:inkscape="http://www.inkscape.org/namespaces/inkscape"
   xmlns:sodipodi="http://sodipodi.sourceforge.net/DTD/sodipodi-0.dtd"
   xmlns="http://www.w3.org/2000/svg"
   xmlns:svg="http://www.w3.org/2000/svg">
  <defs
     id="defs1" />
  <sodipodi:namedview
     id="namedview1"
     pagecolor="#ffffff"
     bordercolor="#000000"
     borderopacity="0.25"
     inkscape:showpageshadow="2"
     inkscape:pageopacity="0.0"
     inkscape:pagecheckerboard="0"
     inkscape:deskcolor="#d1d1d1"
     showgrid="false"
     inkscape:zoom="2.2237501"
     inkscape:cx="96.683526"
     inkscape:cy="116.91961"
     inkscape:window-width="1368"
     inkscape:window-height="850"
     inkscape:window-x="-6"
     inkscape:window-y="-6"
     inkscape:window-maximized="1"
     inkscape:current-layer="g1"
     inkscape:document-units="px" />
  <g
     inkscape:groupmode="layer"
     inkscape:label="Image"
     id="g1">
    <path
       id="path2"
       style="display:inline;fill:#00baff;fill-opacity:1;stroke:none;stroke-width:5.15024"
       d="M 128 0 A 128 128 0 0 0 0 128 A 128 128 0 0 0 24.169922 202.3457 L 124.34375 2 L 138.9707 2 L 232.70312 201.17969 A 128 128 0 0 0 256 128 A 128 128 0 0 0 128 0 z M 131.65625 97.085938 C 106.02188 140.21958 90.519148 200.56544 52.832031 231.21289 A 128 128 0 0 0 128 256 A 128 128 0 0 0 205.88477 229.17969 C 168.96333 197.89751 148.82625 139.40796 131.65625 97.085938 z " />
  </g>
</svg>
