<?xml version="1.0" encoding="UTF-8" standalone="no"?>
<svg
   fill="none"
   height="24"
   viewBox="0 0 24 24"
   width="24"
   version="1.1"
   id="svg1"
   sodipodi:docname="ic_energy_phase.svg"
   inkscape:version="1.3 (0e150ed6c4, 2023-07-21)"
   xml:space="preserve"
   xmlns:inkscape="http://www.inkscape.org/namespaces/inkscape"
   xmlns:sodipodi="http://sodipodi.sourceforge.net/DTD/sodipodi-0.dtd"
   xmlns="http://www.w3.org/2000/svg"
   xmlns:svg="http://www.w3.org/2000/svg"><defs
     id="defs1" /><sodipodi:namedview
     id="namedview1"
     pagecolor="#ffffff"
     bordercolor="#000000"
     borderopacity="0.25"
     inkscape:showpageshadow="2"
     inkscape:pageopacity="0.0"
     inkscape:pagecheckerboard="0"
     inkscape:deskcolor="#d1d1d1"
     inkscape:zoom="24.708333"
     inkscape:cx="12.020236"
     inkscape:cy="12.870152"
     inkscape:window-width="1368"
     inkscape:window-height="850"
     inkscape:window-x="-6"
     inkscape:window-y="-6"
     inkscape:window-maximized="1"
     inkscape:current-layer="layer1" /><path
     id="path1"
     style="color:#000000;display:inline;fill:#4a5568;stroke-linecap:round;stroke-linejoin:round;-inkscape-stroke:none"
     d="m 12,7 c -0.552284,0 -1,0.4477159 -1,1 v 4 c 5.1e-5,0.265199 0.105433,0.519519 0.292969,0.707031 l 3,3 c 0.390506,0.390423 1.023556,0.390423 1.414062,0 0.390423,-0.390506 0.390423,-1.023556 0,-1.414062 L 13,11.585938 V 8 C 13,7.4477159 12.552284,7 12,7 Z" /><path
     id="path2"
     style="color:#000000;display:inline;fill:#4a5568;fill-opacity:1;stroke-linecap:round;stroke-linejoin:round;-inkscape-stroke:none"
     d="M 12,2 C 6.4890157,2 2,6.4890157 2,12 c 0,3.778701 2.0565879,6.920139 4.9667969,8.623047 0.4073711,0.238373 0.8320239,0.445162 1.2695312,0.625 V 19.119141 C 8.1574132,19.079534 8.0762549,19.041932 8,19 7.6510651,18.808123 7.3233849,18.589133 7.0136719,18.349609 5.1301344,16.892937 4,14.600882 4,12 4,7.569894 7.569894,4 12,4 c 4.430151,0 8,3.5698886 8,8 0,2.782855 -1.854371,5.567683 -4,7 -0.08001,0.05341 -0.157619,0.09651 -0.236328,0.144531 v 2.117188 C 19.415878,19.770479 22,16.180032 22,12 22,6.4890211 17.511019,2 12,2 Z" /><g
     inkscape:groupmode="layer"
     id="layer1"
     inkscape:label="Layer 1"><path
       style="fill:#4a5568;fill-opacity:1;stroke:none;stroke-width:0.332098"
       d="M 13.832933,17.103326 9.5,20.772345 11.372482,20.360959 9.9636912,23.061031 14.5,19.061301 12.440629,19.513747 Z"
       id="path13507-4"
       inkscape:connector-curvature="0"
       sodipodi:nodetypes="ccccccc" /></g></svg>
