<?xml version="1.0" encoding="UTF-8"?>
<!-- Created with Inkscape (http://www.inkscape.org/) -->
<svg width="256" height="256" version="1.1" viewBox="0 0 256 256" xmlns="http://www.w3.org/2000/svg">
 <path d="m128 1c0.658 2.33 2.76 5.35 2.77 7.7 0.016 3.7-3.21 7.9-4.5 11.3-2.96 7.79-6.57 15.4-9.86 23.1-1.71 4-3.87 8.12-4.86 12.4-4.87 0.0134-9.31 3.46-8.11 8.8 0.459 2.05 2.61 3.23 1.71 5.5-1.29 3.27-3.04 6.39-4.45 9.62-0.602 1.39-1.57 2.84-1.19 4.4 0.978 4.04 3.24 8.01 4.87 11.8 0.858 2.01 2.12 4.08 1.44 6.32-2.32 7.6-6.25 15.3-9.65 22.5-0.817 1.73-3.69 1.6-3.69 4.16 0 4.08 6.9 3.74 6.61-0.275-0.06-0.842-0.52-1.53-0.976-2.2v-0.275c3.99-5.24 6.01-12.4 8.61-18.4 0.879-2.03 2.98-4.88 2.69-7.15-0.537-4.15-3.24-8.54-4.84-12.4-0.683-1.63-1.96-3.67-1.74-5.5 0.372-3.03 2.76-6.26 3.93-9.07 0.433-1.03 0.744-2.62 1.62-3.37 0.747-0.638 1.97-0.495 2.88-0.766 2.1-0.63 4.13-2.28 4.9-4.39 0.568-1.55 0.563-3.75-0.193-5.22-0.525-1.03-1.92-2.05-1.73-3.3 0.658-4.31 4.13-9.18 5.84-13.2 2.86-6.69 5.76-13.4 8.61-20.1 1.32-3.09 2.21-7.22 4.23-9.9 2.02 3.47 3.49 7.14 5.27 10.7 0.777 1.56 2.28 3.71 2.28 5.5 0 3.28-3.11 7.78-4.46 10.7-1.87 4.08-3.41 8.32-5.36 12.4-1.96 4.06-4.55 8.28-5.74 12.6-1.32 4.83 3.94 9.85 3.11 14.6-0.904 5.18-4.27 10.6-6.38 15.4-5.02 11.4-10.6 22.5-15.8 33.8-1.87 4.09-3.99 8.03-5.9 12.1-0.65 1.38-1.18 4.08-2.51 4.94-1.34 0.862-4.37 0.283-5.92 0.283h-15.3c0.619-6.2 4.95-12.7 7.28-18.4 1.49-3.66 2.89-7.35 4.43-11 0.492-1.17 0.62-2.72 1.3-3.77 0.737-1.14 2.56-1.01 3.71-1.44 2.82-1.05 5.23-3.71 5.14-6.89-0.216-7.17-9.89-9.18-13-2.75-2.07 4.33 2.7 6.8 1.44 10.4-2.98 8.61-6.86 17.2-10.6 25.6-1.68 3.79-3.87 7.53-4.97 11.5h58.9l-4.38 12.6h-24.7c-2.31 0-7.53-0.983-9.48 0.283-1.41 0.913-2.31 4.27-3.05 5.77-2.62 5.26-4.98 10.6-7.54 15.9-5.49 11.4-10.9 22.8-16.6 34.1-3.91 7.85-7.58 15.9-13.8 22.3-7.56 7.77-17.9 13.2-28.8 14.2-5.78 0.554-12.2-1.03-17.8 0.322l10.3-19.8 15.6-31.1 56.7-115 28.5-60.2 8.34-18.1 4.62-9.9m15.1 32.4c0.718 4.04 3.72 8.43 5.55 12.1 0.695 1.39 1.9 3.08 1.98 4.67 0.064 1.25-0.773 2.45-1.21 3.57-1.6 4.1-4.93 7.96-6.1 12.1-0.424 1.5-0.256 3.3 0.485 4.67 0.569 1.05 1.76 1.99 1.63 3.3-0.242 2.32-2.12 5.01-3.04 7.15-2.47 5.78-4.96 11.8-8.06 17.3-1.84-2.24-4.86-8.28-4.53-11.3 0.266-2.41 2.18-4.66 1.98-7.15-0.361-4.57-4.41-9.17-3.69-14 0.482-3.27 3.09-6.92 4.5-9.9 3.45-7.27 7.47-14.9 9.96-22.5h0.548m9.32 21.2c2 2.42 3.13 5.94 4.4 8.8 1.63 3.69 3.56 7.38 5.36 11 7.57 15.2 14.7 30.6 22.1 45.9 21.8 45.2 44.3 90 67.6 134-10.9 0-21.3 0.584-31.5-3.81-14.9-6.44-22.2-18.8-29.1-32.7-6.4-12.8-12.5-25.8-18.8-38.8-2.61-5.4-4.68-11.4-7.89-16.5-0.824-1.31-2.91-0.865-4.24-0.865h-12.1c-1.02 0-4.56 0.557-4.99-0.637-0.892-2.45 1.58-4.23 3.35-5.2 4.74-2.61 9.71-5.49 15.1-6.53v0.275c-2.77 2.4 1.82 4.51 2.81 1.91 0.294-0.774 0.032-1.67-0.067-2.46 3.6-2.7e-4 4.5-1.98 6.57-4.67 3.5-4.55 7.57-9.32 10.4-14.3-6.34 1.51-13.8 0.277-20.3 0.275-12.7-5e-3 -25.4 0.275-38.1 0.275 0.287-1.92 1.74-6.57 3.4-7.69 1.2-0.811 3.45-0.282 4.82-0.281h11.5c-1.52-6.59-6.35-12.9-6.79-19.8-0.148-2.33 2.14-5.89 3.16-7.97 2.1-4.28 4.21-8.55 6.13-12.9 0.915-2.08 1.47-4.95 2.78-6.78 0.692-0.971 2.19-0.55 3.21-0.728 1.91-0.333 3.82-1.43 4.68-3.21 2.32-4.78-0.771-9.75-5.5-11l1.92-6.05m-42.7 4.22c4.29-0.628 5.3 6.47 1.1 7.09-5.15 0.765-6.33-6.33-1.1-7.09m39.7 5.51c4.43-0.961 5.81 5.96 1.64 7.02-4.88 1.24-6.74-5.92-1.64-7.02m-59.5 36.9c4.64-1.42 7.03 5.67 2.46 7.1-4.43 1.39-6.88-5.75-2.46-7.1m32.3 21.9-4.11 11 39.2 0.274 17.3 9.8e-4c-1.59 2.86-3.84 5.36-5.79 7.97-0.844 1.13-1.74 2.88-3 3.57-1.76 0.952-4.35-0.0333-6.28 0.498-4.77 1.32-9.78 4.3-14 6.88-1.85 1.14-3.58 2.46-4.58 4.45-0.558 1.11-0.61 3.62-1.8 4.19-2.37 1.14-7.17 0.204-9.79 0.204 0.236-5.43 3.97-10.4 5.21-15.7-10.6-1.35-22.1-0.275-32.9-0.275 1.02-5.72 5.09-11.5 7.44-16.8 0.756-1.7 1.65-5.26 3.26-6.28 2.22-1.42 7.31-0.0394 9.85-0.0394" fill="#00baff"/>
</svg>
