<?xml version="1.0" encoding="UTF-8" standalone="no"?>
<svg
   fill="none"
   height="24"
   viewBox="0 0 24 24"
   width="24"
   version="1.1"
   id="svg1"
   sodipodi:docname="clock.svg"
   inkscape:version="1.3 (0e150ed6c4, 2023-07-21)"
   xmlns:inkscape="http://www.inkscape.org/namespaces/inkscape"
   xmlns:sodipodi="http://sodipodi.sourceforge.net/DTD/sodipodi-0.dtd"
   xmlns="http://www.w3.org/2000/svg"
   xmlns:svg="http://www.w3.org/2000/svg">
  <defs
     id="defs1" />
  <sodipodi:namedview
     id="namedview1"
     pagecolor="#ffffff"
     bordercolor="#000000"
     borderopacity="0.25"
     inkscape:showpageshadow="2"
     inkscape:pageopacity="0.0"
     inkscape:pagecheckerboard="0"
     inkscape:deskcolor="#d1d1d1"
     inkscape:zoom="24.708333"
     inkscape:cx="12.020236"
     inkscape:cy="12.789208"
     inkscape:window-width="1368"
     inkscape:window-height="850"
     inkscape:window-x="-6"
     inkscape:window-y="-6"
     inkscape:window-maximized="1"
     inkscape:current-layer="svg1" />
  <path
     id="path1"
     style="color:#000000;fill:#4a5568;stroke-linecap:round;stroke-linejoin:round;-inkscape-stroke:none"
     d="M 12 7 C 11.447716 7 11 7.4477159 11 8 L 11 12 C 11.000051 12.265199 11.105433 12.519519 11.292969 12.707031 L 14.292969 15.707031 C 14.683475 16.097454 15.316525 16.097454 15.707031 15.707031 C 16.097454 15.316525 16.097454 14.683475 15.707031 14.292969 L 13 11.585938 L 13 8 C 13 7.4477159 12.552284 7 12 7 z " />
  <path
     id="path2"
     style="color:#000000;fill:#4a5568;stroke-linecap:round;stroke-linejoin:round;-inkscape-stroke:none;fill-opacity:1"
     d="M 12 2 C 6.4890157 2 2 6.4890157 2 12 C 2 15.778701 4.0565879 18.920139 6.9667969 20.623047 C 7.374168 20.86142 7.7988208 21.068209 8.2363281 21.248047 L 8.2363281 19.119141 C 8.1574132 19.079534 8.0762549 19.041932 8 19 C 7.6510651 18.808123 7.3233849 18.589133 7.0136719 18.349609 C 5.1301344 16.892937 4 14.600882 4 12 C 4 7.569894 7.569894 4 12 4 C 16.430151 4 20 7.5698886 20 12 C 20 14.782855 18.145629 17.567683 16 19 C 15.919991 19.05341 15.842381 19.096507 15.763672 19.144531 L 15.763672 21.261719 C 19.415878 19.770479 22 16.180032 22 12 C 22 6.4890211 17.511019 2 12 2 z " />
</svg>
