<?xml version="1.0" encoding="UTF-8" standalone="no"?>
<svg
   fill="none"
   height="31"
   viewBox="0 0 24 31"
   width="24"
   version="1.1"
   id="svg1"
   sodipodi:docname="clock.svg"
   inkscape:version="1.3 (0e150ed6c4, 2023-07-21)"
   xmlns:inkscape="http://www.inkscape.org/namespaces/inkscape"
   xmlns:sodipodi="http://sodipodi.sourceforge.net/DTD/sodipodi-0.dtd"
   xmlns="http://www.w3.org/2000/svg"
   xmlns:svg="http://www.w3.org/2000/svg">
  <defs
     id="defs1" />
  <sodipodi:namedview
     id="namedview1"
     pagecolor="#ffffff"
     bordercolor="#000000"
     borderopacity="0.25"
     inkscape:showpageshadow="2"
     inkscape:pageopacity="0.0"
     inkscape:pagecheckerboard="0"
     inkscape:deskcolor="#d1d1d1"
     inkscape:zoom="24.708333"
     inkscape:cx="12.040472"
     inkscape:cy="23.231029"
     inkscape:window-width="1368"
     inkscape:window-height="850"
     inkscape:window-x="-6"
     inkscape:window-y="-6"
     inkscape:window-maximized="1"
     inkscape:current-layer="svg1" />
  <path
     d="m 12,8 v 4 l 3,3 m 6,-3 c 0,4.9706 -4.0294,9 -9,9 -4.97056,0 -9,-4.0294 -9,-9 0,-4.97056 4.02944,-9 9,-9 4.9706,0 9,4.02944 9,9 z"
     stroke="#4a5568"
     stroke-linecap="round"
     stroke-linejoin="round"
     stroke-width="2"
     id="path1" />
  <path
     id="rect1"
     style="fill:#4a5568;fill-opacity:1;stroke-width:1.49636"
     d="M 3.7558594 23 C 2.7829828 23 2 23.782983 2 24.755859 L 2 27.244141 C 2 28.217017 2.7829828 29 3.7558594 29 L 20.244141 29 C 21.217017 29 22 28.217017 22 27.244141 L 22 24.755859 C 22 23.782983 21.217017 23 20.244141 23 L 3.7558594 23 z M 12.945312 23.5 C 13.350009 23.5 13.701295 23.567047 14 23.701172 L 13.787109 24.615234 C 13.582352 24.428339 13.283277 24.333984 12.890625 24.333984 C 12.497973 24.333984 12.1808 24.463448 11.9375 24.720703 C 11.800192 24.865822 11.702345 25.045994 11.644531 25.263672 L 13.630859 25.263672 L 13.515625 25.775391 L 11.572266 25.775391 C 11.569857 25.825962 11.568359 25.891548 11.568359 25.970703 C 11.568359 26.04766 11.571354 26.127384 11.576172 26.210938 L 13.414062 26.210938 L 13.298828 26.722656 L 11.650391 26.722656 C 11.710613 26.957924 11.804424 27.143219 11.929688 27.277344 C 12.170578 27.536798 12.483715 27.666016 12.869141 27.666016 C 13.331651 27.666016 13.699994 27.536798 13.974609 27.277344 L 13.974609 28.285156 C 13.661451 28.428076 13.295648 28.5 12.878906 28.5 C 12.175505 28.5 11.597406 28.279597 11.144531 27.839844 C 10.836191 27.540812 10.633922 27.169006 10.535156 26.722656 L 10 26.722656 L 10.115234 26.210938 L 10.470703 26.210938 C 10.468294 26.158167 10.466797 26.102335 10.466797 26.042969 C 10.466797 25.941826 10.467838 25.852347 10.472656 25.775391 L 10 25.775391 L 10.115234 25.263672 L 10.544922 25.263672 C 10.646096 24.826118 10.847324 24.46065 11.148438 24.166016 C 11.603721 23.721865 12.203369 23.5 12.945312 23.5 z " />
</svg>
